<?xml version="1.0" encoding="UTF-8" standalone="no"?>
<!-- Created with Inkscape (http://www.inkscape.org/) -->

<svg
   xmlns:dc="http://purl.org/dc/elements/1.1/"
   xmlns:cc="http://creativecommons.org/ns#"
   xmlns:rdf="http://www.w3.org/1999/02/22-rdf-syntax-ns#"
   xmlns:svg="http://www.w3.org/2000/svg"
   xmlns="http://www.w3.org/2000/svg"
   xmlns:sodipodi="http://sodipodi.sourceforge.net/DTD/sodipodi-0.dtd"
   xmlns:inkscape="http://www.inkscape.org/namespaces/inkscape"
   width="118.59663mm"
   height="104.04426mm"
   viewBox="0 0 118.37073 104.04426"
   version="1.1"
   id="svg8"
   inkscape:version="0.92.1 r15371"
   sodipodi:docname="concept.svg">
  <defs
     id="defs2" />
  <sodipodi:namedview
     id="base"
     pagecolor="#ffffff"
     bordercolor="#666666"
     borderopacity="1.0"
     inkscape:pageopacity="0.0"
     inkscape:pageshadow="2"
     inkscape:zoom="1.4"
     inkscape:cx="173.26399"
     inkscape:cy="251.54929"
     inkscape:document-units="mm"
     inkscape:current-layer="layer1"
     showgrid="false"
     inkscape:window-width="1280"
     inkscape:window-height="961"
     inkscape:window-x="1272"
     inkscape:window-y="46"
     inkscape:window-maximized="1"
     viewbox-width="209.6"
     fit-margin-top="0"
     fit-margin-left="0"
     fit-margin-right="0"
     fit-margin-bottom="0" />
  <metadata
     id="metadata5">
    <rdf:RDF>
      <cc:Work
         rdf:about="">
        <dc:format>image/svg+xml</dc:format>
        <dc:type
           rdf:resource="http://purl.org/dc/dcmitype/StillImage" />
        <dc:title></dc:title>
      </cc:Work>
    </rdf:RDF>
  </metadata>
  <g
     inkscape:label="Layer 1"
     inkscape:groupmode="layer"
     id="layer1"
     transform="translate(-42.401046,-63.064222)">
    <rect
       style="fill:#550000;fill-opacity:0.50196078;stroke:#000000;stroke-width:0.26458332;stroke-linecap:butt;stroke-linejoin:miter;stroke-miterlimit:4;stroke-dasharray:none;stroke-dashoffset:0;stroke-opacity:1"
       id="rect4485"
       width="117.55059"
       height="103.1875"
       x="42.333332"
       y="63.788689" />
    <text
       xml:space="preserve"
       style="font-style:normal;font-variant:normal;font-weight:normal;font-stretch:normal;font-size:4.63020849px;line-height:125%;font-family:sans-serif;-inkscape-font-specification:'sans-serif, Normal';text-align:start;letter-spacing:0px;word-spacing:0px;writing-mode:lr-tb;text-anchor:start;fill:#000000;fill-opacity:1;stroke:none;stroke-width:0.26458332px;stroke-linecap:butt;stroke-linejoin:miter;stroke-opacity:1"
       x="43.202667"
       y="68.740166"
       id="text4489"><tspan
         sodipodi:role="line"
         id="tspan4487"
         x="43.202667"
         y="68.740166"
         style="stroke-width:0.26458332px">THIS IS MARS SURFACE</tspan></text>
    <rect
       style="fill:#550000;fill-opacity:0.50196078;stroke:#000000;stroke-width:0.26458332;stroke-linecap:butt;stroke-linejoin:miter;stroke-miterlimit:4;stroke-dasharray:none;stroke-dashoffset:0;stroke-opacity:1"
       id="rect4491"
       width="6.8035712"
       height="6.614583"
       x="97.706841"
       y="105.17708" />
    <ellipse
       style="fill:#550000;fill-opacity:0.50196078;stroke:#000000;stroke-width:0.26458332;stroke-linecap:butt;stroke-linejoin:miter;stroke-miterlimit:4;stroke-dasharray:none;stroke-dashoffset:0;stroke-opacity:1"
       id="path4493"
       cx="61.704609"
       cy="130.78497"
       rx="2.1733632"
       ry="2.3623512" />
    <ellipse
       style="fill:#550000;fill-opacity:0.50196078;stroke:#000000;stroke-width:0.26458332;stroke-linecap:butt;stroke-linejoin:miter;stroke-miterlimit:4;stroke-dasharray:none;stroke-dashoffset:0;stroke-opacity:1"
       id="path4495"
       cx="143.81993"
       cy="146.65997"
       rx="2.0788691"
       ry="1.984375" />
    <ellipse
       style="fill:#550000;fill-opacity:0.50196078;stroke:#000000;stroke-width:0.26458332;stroke-linecap:butt;stroke-linejoin:miter;stroke-miterlimit:4;stroke-dasharray:none;stroke-dashoffset:0;stroke-opacity:1"
       id="path4497"
       cx="133.80357"
       cy="73.143593"
       rx="2.0788691"
       ry="2.1733632" />
    <circle
       style="fill:#00ff00;fill-opacity:0.50196078;stroke:#000000;stroke-width:0.26458332;stroke-linecap:butt;stroke-linejoin:miter;stroke-miterlimit:4;stroke-dasharray:none;stroke-dashoffset:0;stroke-opacity:1"
       id="path4499"
       cx="87.973961"
       cy="114.90997"
       r="1.0394346" />
    <ellipse
       style="fill:#00ff00;fill-opacity:0.50196078;stroke:#000000;stroke-width:0.26458332;stroke-linecap:butt;stroke-linejoin:miter;stroke-miterlimit:4;stroke-dasharray:none;stroke-dashoffset:0;stroke-opacity:1"
       id="path4501"
       cx="80.130951"
       cy="120.01265"
       rx="0.94494045"
       ry="1.2284226" />
    <ellipse
       style="fill:#00ff00;fill-opacity:0.50196078;stroke:#000000;stroke-width:0.26458332;stroke-linecap:butt;stroke-linejoin:miter;stroke-miterlimit:4;stroke-dasharray:none;stroke-dashoffset:0;stroke-opacity:1"
       id="path4503"
       cx="71.531998"
       cy="124.35938"
       rx="0.8504464"
       ry="1.0394346" />
    <rect
       style="fill:#00ff00;fill-opacity:0.50196078;stroke:#000000;stroke-width:0.12023339;stroke-linecap:butt;stroke-linejoin:miter;stroke-miterlimit:4;stroke-dasharray:none;stroke-dashoffset:0;stroke-opacity:1"
       id="rect4509"
       width="14.457244"
       height="0.5295487"
       x="35.066406"
       y="142.68359"
       transform="matrix(0.88892511,-0.45805256,0.3979041,0.91742702,0,0)" />
    <rect
       transform="matrix(0.82731203,-0.56174265,0.31264609,0.94986969,0,0)"
       y="150.1989"
       x="40.092567"
       height="0.40997374"
       width="9.44944"
       id="rect4511"
       style="fill:#00ff00;fill-opacity:0.50196078;stroke:#000000;stroke-width:0.08552841;stroke-linecap:butt;stroke-linejoin:miter;stroke-miterlimit:4;stroke-dasharray:none;stroke-dashoffset:0;stroke-opacity:1" />
    <rect
       style="fill:#00ff00;fill-opacity:0.50196078;stroke:#000000;stroke-width:0.08150852;stroke-linecap:butt;stroke-linejoin:miter;stroke-miterlimit:4;stroke-dasharray:none;stroke-dashoffset:0;stroke-opacity:1"
       id="rect4513"
       width="9.6890755"
       height="0.36313233"
       x="18.025389"
       y="143.96507"
       transform="matrix(0.88196929,-0.47130688,0.38583756,0.92256673,0,0)" />
    <rect
       style="fill:#00ff00;fill-opacity:0.50196078;stroke:#000000;stroke-width:0.26458332;stroke-linecap:butt;stroke-linejoin:miter;stroke-miterlimit:4;stroke-dasharray:none;stroke-dashoffset:0;stroke-opacity:1"
       id="rect4515"
       width="8.619442"
       height="7.4835467"
       x="57.529766"
       y="127.0834" />
    <rect
       style="fill:#1a1a1a;fill-opacity:0.50196078;stroke:#000000;stroke-width:0.26458332;stroke-linecap:butt;stroke-linejoin:miter;stroke-miterlimit:4;stroke-dasharray:none;stroke-dashoffset:0;stroke-opacity:1"
       id="rect4517"
       width="9.822156"
       height="0.66817379"
       x="-7.3369904"
       y="143.26877"
       transform="rotate(-28.978498)" />
    <path
       style="fill:#2b0000;fill-rule:evenodd;stroke:#000000;stroke-width:0.26458332px;stroke-linecap:butt;stroke-linejoin:miter;stroke-opacity:1"
       d="m 112.06994,68.70238 c -1.26316,0.989745 -0.69784,0.245078 -1.88988,0.755951 -0.20877,0.08947 -0.35149,0.306152 -0.56697,0.377979 -0.17929,0.05976 -0.38247,-0.041 -0.56696,0 -0.38893,0.08643 -0.74499,0.291544 -1.13393,0.377975 -0.18449,0.041 -0.38525,-0.05192 -0.56696,0 -0.27089,0.0774 -0.48094,0.31686 -0.75596,0.377976 -0.30747,0.06833 -0.62996,0 -0.94494,0 -0.25198,0 -0.51366,-0.06922 -0.75595,0 -0.21839,0.0624 -0.36381,0.276397 -0.56696,0.377976 -0.0564,0.02817 -0.126,0 -0.18899,0 -0.12599,0 -0.25845,-0.03984 -0.37798,0 -0.0845,0.02817 -0.10447,0.160816 -0.18899,0.188989 -0.11952,0.03984 -0.25845,-0.03984 -0.37797,0 -0.0845,0.02817 -0.10447,0.160814 -0.18899,0.188987 -0.11953,0.03984 -0.27314,-0.06989 -0.37798,0 -0.1172,0.07814 -0.0894,0.278371 -0.18898,0.377976 -0.0674,0.464251 -0.40121,0.07849 -0.56697,0.188989 -0.56696,0.377976 -0.18899,0.283482 -0.56696,0.566965 -0.18171,0.136279 -0.3722,0.261115 -0.56697,0.377976 -0.12079,0.07247 -0.27837,0.08938 -0.37797,0.188986 -0.22273,0.222727 -0.32499,0.554308 -0.566966,0.755955 -0.153038,0.127531 -0.40486,0.0732 -0.566965,0.188986 -0.289981,0.207129 -0.503968,0.503968 -0.755952,0.755952 -0.352091,0.352091 -0.918062,0.819224 -1.13393,1.322916 -0.102314,0.238739 -0.08667,0.517216 -0.188987,0.755955 -0.08947,0.208769 -0.306149,0.351483 -0.377975,0.566962 -0.05976,0.179292 0,0.377978 0,0.566965 0,0.503968 0,1.007938 0,1.511906 0,0.07594 -0.01918,1.105149 0,1.133927 0.07814,0.117205 0.24434,0.144444 0.377975,0.18899 0.05976,0.01992 0.160814,-0.05635 0.188987,0 0.05635,0.112688 -0.08909,0.288885 0,0.377975 0.08909,0.08909 0.25845,-0.03984 0.377976,0 0.08452,0.02817 0.125994,0.125992 0.188989,0.188987 0.188989,0.188989 0.377976,0.377978 0.566965,0.566965 0.440971,0.440973 0.881944,0.881944 1.322917,1.322917 0.125992,0.125992 0.251986,0.251984 0.377976,0.377975 0.063,0.063 0.16082,0.104471 0.18899,0.18899 0.0398,0.119525 -0.0891,0.288885 0,0.377976 0.30734,0.307337 0.40183,-0.306412 0.56696,0.188989 0.0398,0.119525 -0.0891,0.288885 0,0.377976 0.0891,0.08909 0.25845,-0.03984 0.37798,0 0.12761,0.04253 0.64786,0.728927 0.75595,0.755951 0.18335,0.04584 0.39149,-0.07019 0.56696,0 0.16544,0.06618 0.25199,0.251984 0.37798,0.377976 0.21623,0.216231 0.22372,0.263562 0.56696,0.377976 0.0598,0.01992 0.126,0 0.18899,0 0.063,0.125992 0.0718,0.299839 0.18899,0.377976 0.10483,0.06989 0.25845,-0.03984 0.37798,0 0.0845,0.02817 0.10447,0.160816 0.18899,0.188989 0.11952,0.03984 0.27314,-0.06989 0.37797,0 0.36135,0.722699 -0.0556,0.170439 0.56697,0.377976 0.0845,0.02817 0.12599,0.125992 0.18898,0.188989 0.4457,0.445693 0.40341,0.290716 0.56697,0.944941 0.0153,0.06111 -0.0563,0.160813 0,0.188986 0.11269,0.05635 0.28889,-0.08909 0.37797,0 0.0891,0.08909 -0.0398,0.258451 0,0.377976 0.0282,0.08452 0.13957,0.114861 0.18899,0.188989 0.0781,0.117205 0.14445,0.24434 0.18899,0.377976 0.0199,0.05976 -0.0445,0.144444 0,0.188989 0.0996,0.0996 0.29984,0.07178 0.37798,0.188987 0.0663,0.09953 -0.0572,0.96226 0,1.13393 0.0445,0.133633 0.14444,0.24434 0.18898,0.377976 0.0417,0.124994 0,0.948272 0,1.133927 0,0.063 0,0.125992 0,0.188989 0,0.063 -0.0563,0.160814 0,0.188987 0.1127,0.05635 0.28889,-0.08909 0.37798,0 0.0945,0.0945 -0.0473,0.425225 0,0.566965 0.0446,0.133636 0.14444,0.244343 0.18899,0.377976 0.063,0.188989 -0.12599,0.377976 0,0.566965 0.0781,0.117205 0.29984,0.07178 0.37798,0.188986 0.0699,0.104834 -0.0399,0.258451 0,0.377979 0.009,0.02722 0.72873,0.746876 0.75595,0.755952 0.11953,0.03984 0.25845,-0.03984 0.37797,0 0.0988,0.03293 0.59298,0.633719 0.75596,0.755951 0.1817,0.136282 0.37219,0.261117 0.56696,0.377976 0.12079,0.07247 0.27837,0.08938 0.37798,0.188989 0.0996,0.0996 0.0894,0.278371 0.18898,0.377976 0.0996,0.09961 0.27838,0.08938 0.37798,0.188989 0.22883,0.457661 0.0894,0.278371 0.37798,0.566963 0.31498,0.314981 0.62996,0.629962 0.94494,0.94494 0.063,0.063 0.16081,0.104471 0.18899,0.18899 2.6e-4,7.93e-4 -1.8e-4,0.566782 0,0.566962 0.0996,0.09961 0.29984,0.07178 0.37797,0.188986 0.12599,0.18899 -0.063,0.37798 0,0.56697 0.0446,0.13363 0.14445,0.24434 0.18899,0.37797 0.0199,0.0598 0,0.126 0,0.18899 0,0.12599 0,0.25199 0,0.37798 0,0.37797 0,0.75595 0,1.13393 0,0.18899 -0.0702,0.39149 0,0.56696 0.0844,0.21089 0.2764,0.36381 0.37798,0.56696 0.0626,0.12525 -0.0528,0.59756 0,0.75596 0.0445,0.13363 0.14444,0.24434 0.18898,0.37797 0.0317,0.095 0,1.08457 0,1.13393 0,0.56697 0,1.13393 0,1.70089 0,0.56697 0,1.13393 0,1.7009 0,0.12599 -0.0699,0.27314 0,0.37797 0.0781,0.11721 0.27837,0.0894 0.37798,0.18899 0.0445,0.0445 -0.0199,0.12923 0,0.18899 0.0445,0.13363 0.14444,0.24434 0.18899,0.37798 0.0199,0.0598 0,0.12599 0,0.18899 0,0.18898 -0.0702,0.39149 0,0.56696 0.0662,0.16543 0.27914,0.22972 0.37797,0.37797 0.0349,0.0524 -0.0199,0.12923 0,0.18899 0.0446,0.13364 0.11652,0.25719 0.18899,0.37798 -0.0507,0.4384 0.40491,0.48586 0.56697,0.75595 0.14495,0.24158 0.21422,0.5267 0.37797,0.75595 0.15535,0.21749 0.37798,0.37798 0.56697,0.56697 0.25198,0.25198 0.50397,0.50397 0.75595,0.75595 0.25198,0.25199 0.47466,0.53717 0.75595,0.75595 0.28995,0.22552 0.63504,0.36976 0.94494,0.56697 0.38325,0.24388 0.7676,0.48731 1.13393,0.75595 0.57921,0.42476 1.09786,0.93272 1.70089,1.32292 0.47306,0.30609 1.02269,0.4764 1.51191,0.75595 0.39442,0.22538 0.73513,0.53842 1.13393,0.75595 1.87523,1.02285 0.0882,-0.12419 1.70089,0.56696 0.20877,0.0895 0.36976,0.26529 0.56696,0.37798 0.24461,0.13978 0.51135,0.2382 0.75596,0.37798 0.19721,0.11269 0.35607,0.29362 0.56696,0.37797 0.0562,0.0225 0.86745,0 0.94494,0 0.16378,0 0.64648,-0.0365 0.75595,0 0.13364,0.0446 0.23985,0.16137 0.37798,0.18899 0.18532,0.0371 0.38362,-0.0458 0.56696,0 0.32912,0.0823 0.62612,0.26204 0.94494,0.37798 0.37444,0.13616 0.75084,0.26852 1.13393,0.37798 0.99899,0.28542 2.01588,0.50396 3.02381,0.75595 0.50397,0.12599 1.0154,0.2252 1.51191,0.37797 0.32424,0.0998 0.61765,0.28872 0.94494,0.37798 0.36969,0.10082 0.75308,0.14667 1.13393,0.18899 0.18783,0.0209 0.39149,-0.0702 0.56696,0 0.16544,0.0662 0.22972,0.27914 0.37798,0.37797 0.0524,0.0349 0.12599,0 0.18899,0 0.063,0 0.12599,0 0.18898,0 0.31498,0 0.62996,0 0.94494,0 1.07094,0 2.14187,0 3.2128,0 0.20275,0 1.198,-0.0416 1.32292,0 0.13363,0.0446 0.25198,0.126 0.37797,0.18899 0.18899,0 0.38768,-0.0598 0.56697,0 0.21548,0.0718 0.35148,0.30615 0.56696,0.37798 0.17929,0.0598 0.38248,-0.041 0.56697,0 0.38893,0.0864 0.75595,0.25198 1.13393,0.37797 0.48013,0.16005 2.00423,0.68632 2.45684,0.75596 0.37358,0.0575 0.75595,0 1.13393,0 0.50397,0 1.00794,0 1.5119,0 0.69296,0 1.38592,0 2.07887,0 0.18899,0 0.37798,0 0.56697,0 0.063,0 0.12787,0.0153 0.18899,0 0.0984,-0.0246 0.8146,-0.24764 0.94494,-0.37798 0.0996,-0.0996 0.0894,-0.27837 0.18898,-0.37798 0.0996,-0.0996 0.27837,-0.0894 0.37798,-0.18898 0.0996,-0.0996 0.0718,-0.29984 0.18899,-0.37798 0.26343,-0.17562 0.43288,0.21327 0.56696,-0.18899 0.0398,-0.11953 -0.0891,-0.28888 0,-0.37798 0.0891,-0.0891 0.26529,0.0564 0.37798,0 0.0564,-0.0282 0,-0.12599 0,-0.18898 0,-0.18899 0,-0.37798 0,-0.56697 0,-1.00793 0,-2.01587 0,-3.02381 0,-0.56696 0,-1.13393 0,-1.70089 0,-0.063 0.0445,-0.14444 0,-0.18899 -0.0446,-0.0445 -0.16082,0.0564 -0.18899,0 -0.0803,-0.16058 0.0626,-0.75707 0,-0.94494 -0.0282,-0.0845 -0.14915,-0.1093 -0.18899,-0.18899 -0.0282,-0.0563 0.0564,-0.16081 0,-0.18898 -0.11269,-0.0563 -0.28888,0.0891 -0.37797,0 -0.0891,-0.0891 0,-0.25199 0,-0.37798 0,-0.11711 0.0296,-1.0748 0,-1.13393 -0.0282,-0.0563 -0.14445,0.0445 -0.18899,0 -0.0446,-0.0445 0,-0.12599 0,-0.18899 0,-0.37797 0,-0.75595 0,-1.13392 0,-2.77183 0,-5.54366 0,-8.31548 0,-0.36717 0.0445,-0.14444 -0.37798,-0.56697 -0.063,-0.063 -0.16081,-0.10447 -0.18899,-0.18898 -0.0398,-0.11953 0.0891,-0.28889 0,-0.37798 -0.045,-0.045 -0.63384,0 -0.75595,0 -1.46879,0 0.32937,-0.0468 -3.2128,1.13393 -0.17929,0.0598 -0.37797,0 -0.56696,0 -0.50397,0 -1.00794,0 -1.5119,0 -0.50397,0 -1.00794,0 -1.51191,0 -0.18899,0 -0.37988,0.0267 -0.56696,0 -1.2893,-0.18419 -0.26614,-0.0973 -1.32292,-0.56697 -0.36408,-0.16181 -0.77122,-0.2131 -1.13393,-0.37797 -0.41941,-0.19064 -1.77096,-1.11765 -2.07887,-1.32292 -0.56696,-0.37798 -1.15961,-0.72001 -1.70089,-1.13393 -6.10856,-4.671248 2.92624,1.67277 -3.2128,-2.07887 -0.61288,-0.37453 -1.13393,-0.88194 -1.70089,-1.322913 -0.88535,-0.688604 -1.76049,-1.390266 -2.64583,-2.078868 -1.48059,-1.151572 -0.0277,-0.0544 -1.51191,-0.944941 -0.36181,-0.217088 -0.0334,-0.222366 -0.37798,-0.566965 -0.0996,-0.0996 -0.29983,-0.07178 -0.37797,-0.188989 -0.0542,-0.08126 0.04,-0.824865 0,-0.944938 -0.0282,-0.08452 -0.16082,-0.104471 -0.18899,-0.188989 -0.0231,-0.0693 0,-1.101503 0,-1.133928 0,-0.566965 0,-1.13393 0,-1.700895 0,-0.125992 0,-0.251984 0,-0.377976 0,-0.06299 -0.0445,-0.144441 0,-0.188986 0.0996,-0.0996 0.29984,-0.07178 0.37798,-0.188989 0.0211,-0.03168 0.0175,-0.909963 0,-0.944941 -0.0282,-0.05635 -0.13265,0.02817 -0.18899,0 -0.12669,-0.06334 -1.08457,-1.084564 -1.13393,-1.133928 -0.25198,-0.251984 -0.50397,-0.503967 -0.75595,-0.755951 -0.18899,-0.18899 -0.356,-0.402879 -0.56697,-0.566965 -0.35858,-0.278895 -0.75595,-0.503968 -1.13393,-0.755952 -0.37797,-0.251986 -0.73951,-0.530572 -1.13392,-0.755954 -0.48922,-0.279551 -1.02269,-0.476401 -1.51191,-0.755952 -0.39442,-0.225383 -0.73951,-0.530571 -1.13393,-0.755951 -0.48921,-0.279551 -1.0534,-0.428453 -1.5119,-0.755955 -0.43497,-0.310692 -0.75595,-0.755951 -1.13393,-1.133927 -0.37798,-0.377976 -0.75595,-0.755952 -1.13393,-1.133928 -1.59969,-1.599692 -0.66377,-0.580289 -1.88988,-2.07887 -0.31156,-0.380799 -0.67202,-0.724546 -0.94494,-1.133928 -1.20436,-1.80654 -0.55799,-1.365377 -1.70089,-2.834822 -0.16409,-0.210969 -0.37798,-0.377976 -0.56697,-0.566963 -0.12599,-0.125992 -0.27914,-0.229722 -0.37797,-0.377978 -0.0349,-0.05241 0,-0.125992 0,-0.188987 0,-0.125992 0.0398,-0.25845 0,-0.377976 -0.0282,-0.08452 -0.14915,-0.109304 -0.18899,-0.188989 -0.0282,-0.05635 0,-0.125992 0,-0.188986 0,-0.377979 0,-0.755955 0,-1.133931 0,-0.125991 -0.0699,-0.273145 0,-0.377975 0.0781,-0.117205 0.29984,-0.07178 0.37797,-0.18899 0.0699,-0.10483 -0.0398,-0.258447 0,-0.377975 0.0282,-0.08452 0.16082,-0.104468 0.18899,-0.188987 0.0398,-0.119528 -0.0699,-0.273145 0,-0.377976 0.0781,-0.117208 0.27837,-0.08938 0.37798,-0.188989 0.0445,-0.04454 -0.0199,-0.129225 0,-0.188989 0.0445,-0.133633 0.0894,-0.278371 0.18899,-0.377976 0.0996,-0.0996 0.27837,-0.08938 0.37797,-0.188987 0.0996,-0.0996 0.11652,-0.257188 0.18899,-0.377975 0.11686,-0.194768 0.29362,-0.356077 0.37798,-0.566965 0.0468,-0.116981 -0.0399,-0.258451 0,-0.377976 0.0968,-0.290306 0.4126,-0.146439 0.56696,-0.377976 0.0699,-0.104833 -0.0398,-0.25845 0,-0.377979 0.0282,-0.08451 0.16082,-0.104468 0.18899,-0.188986 0.10499,-0.314981 -0.15749,-0.62996 0,-0.944941 0.063,-0.125992 0.29984,-0.07178 0.37798,-0.188989 0.0699,-0.104831 0,-0.251984 0,-0.377976 0,-0.188987 0,-0.377976 0,-0.566962 0,-0.426969 -0.0282,0.08451 0.18898,-0.566965 0.0365,-0.109477 0,-0.59218 0,-0.755952 0,-0.125992 0.0891,-0.288888 0,-0.377978 -0.0406,-0.04059 -0.88324,0 -0.94494,0 -0.18898,0 -0.39792,0.08452 -0.56696,0 -0.50397,-0.251984 0.56696,-0.188987 -0.18899,-0.188987 -0.12599,0 -0.25198,0 -0.37798,0 -0.063,0 -0.16081,0.05635 -0.18898,0 -0.0564,-0.112691 0.0891,-0.288888 0,-0.377976 -0.0891,-0.08909 -0.26529,0.05635 -0.37798,0 -0.0563,-0.02817 0.0445,-0.144444 0,-0.188989 -0.0891,-0.08909 -0.28889,0.08909 -0.37798,0 -0.0445,-0.04454 0.0563,-0.160816 0,-0.188987 -0.11269,-0.05635 -0.25198,0 -0.37797,0 -0.063,0 -0.12923,-0.01992 -0.18899,0 -0.78965,0.263216 -0.11056,0.03213 -0.37798,0.566963 -0.0282,0.05635 -0.14444,-0.04455 -0.18898,0 -0.0446,0.04454 0.0563,0.160816 0,0.188989 -0.1127,0.05635 -0.28889,-0.08909 -0.37798,0 -0.0891,0.08909 0.0563,0.265284 0,0.377976 -0.0374,0.07477 -0.37895,-0.09401 -0.56696,0 -0.0563,0.02817 0.0445,0.144444 0,0.188989 -0.0446,0.04454 -0.126,0 -0.18899,0 -0.126,0 -0.27315,-0.06989 -0.37798,0 -0.1172,0.07814 -0.11085,0.260771 -0.18899,0.377976 -0.0494,0.07413 -0.12599,0.125992 -0.18899,0.188986 -0.12599,0.125992 -0.25198,0.251984 -0.37797,0.377976 -0.18899,0.188989 -0.34458,0.418711 -0.56697,0.566965 -0.0524,0.03494 -0.12922,-0.01992 -0.18898,0 -0.13364,0.04454 -0.24435,0.144444 -0.37798,0.188989 -0.0598,0.01992 -0.14444,-0.04454 -0.18899,0 -0.0445,0.04455 0.0563,0.160814 0,0.188987 -0.11269,0.05635 -0.28888,-0.08909 -0.37797,0 -0.0891,0.08909 0.0398,0.25845 0,0.377976 -0.0282,0.08452 -0.16082,0.104471 -0.18899,0.188989 -0.0398,0.119526 0.0699,0.273145 0,0.377976 -0.0781,0.117205 -0.29984,0.07178 -0.37798,0.188989 -0.0699,0.104831 0,0.251984 0,0.377976 -0.25198,0.251984 -0.50397,0.503968 -0.75595,0.755952 z"
       id="path4521"
       inkscape:connector-curvature="0" />
    <circle
       r="1.0394346"
       cy="107.48983"
       cx="-121.0406"
       id="circle4523"
       style="fill:#00ff00;fill-opacity:0.50196078;stroke:#000000;stroke-width:0.26458332;stroke-linecap:butt;stroke-linejoin:miter;stroke-miterlimit:4;stroke-dasharray:none;stroke-dashoffset:0;stroke-opacity:1"
       transform="rotate(-90)" />
    <ellipse
       ry="1.2284226"
       rx="0.94494045"
       cy="112.59251"
       cx="-128.88361"
       id="ellipse4525"
       style="fill:#00ff00;fill-opacity:0.50196078;stroke:#000000;stroke-width:0.26458332;stroke-linecap:butt;stroke-linejoin:miter;stroke-miterlimit:4;stroke-dasharray:none;stroke-dashoffset:0;stroke-opacity:1"
       transform="rotate(-90)" />
    <rect
       transform="matrix(-0.45805256,-0.88892511,0.91742702,-0.3979041,0,0)"
       y="40.120804"
       x="-154.15584"
       height="0.5295487"
       width="14.457244"
       id="rect4527"
       style="fill:#00ff00;fill-opacity:0.50196078;stroke:#000000;stroke-width:0.12023339;stroke-linecap:butt;stroke-linejoin:miter;stroke-miterlimit:4;stroke-dasharray:none;stroke-dashoffset:0;stroke-opacity:1" />
    <rect
       style="fill:#00ff00;fill-opacity:0.50196078;stroke:#000000;stroke-width:0.08552841;stroke-linecap:butt;stroke-linejoin:miter;stroke-miterlimit:4;stroke-dasharray:none;stroke-dashoffset:0;stroke-opacity:1"
       id="rect4529"
       width="9.44944"
       height="0.40997374"
       x="-163.98834"
       y="21.695906"
       transform="matrix(-0.56174265,-0.82731203,0.94986969,-0.31264609,0,0)" />
    <rect
       style="fill:#2b0000;fill-opacity:0.50196078;stroke:#000000;stroke-width:0.26458332;stroke-linecap:butt;stroke-linejoin:miter;stroke-miterlimit:4;stroke-dasharray:none;stroke-dashoffset:0;stroke-opacity:1"
       id="rect4531"
       width="4.2522321"
       height="6.4255953"
       x="113.01488"
       y="134.18675" />
    <rect
       style="fill:#2b0000;fill-opacity:0.50196078;stroke:#000000;stroke-width:0.26458332;stroke-linecap:butt;stroke-linejoin:miter;stroke-miterlimit:4;stroke-dasharray:none;stroke-dashoffset:0;stroke-opacity:1"
       id="rect4533"
       width="0.76839989"
       height="1.1358955"
       x="112.28661"
       y="134.56694" />
    <rect
       style="fill:#2b0000;fill-opacity:0.50196078;stroke:#000000;stroke-width:0.26458332;stroke-linecap:butt;stroke-linejoin:miter;stroke-miterlimit:4;stroke-dasharray:none;stroke-dashoffset:0;stroke-opacity:1"
       id="rect4537"
       width="1.0022607"
       height="1.2695302"
       x="112.2532"
       y="138.30872" />
    <rect
       y="134.56694"
       x="-118.06361"
       height="1.1358955"
       width="0.76839989"
       id="rect4549"
       style="fill:#2b0000;fill-opacity:0.50196078;stroke:#000000;stroke-width:0.26458332;stroke-linecap:butt;stroke-linejoin:miter;stroke-miterlimit:4;stroke-dasharray:none;stroke-dashoffset:0;stroke-opacity:1"
       transform="scale(-1,1)" />
    <rect
       y="138.30872"
       x="-118.09703"
       height="1.2695302"
       width="1.0022607"
       id="rect4551"
       style="fill:#2b0000;fill-opacity:0.50196078;stroke:#000000;stroke-width:0.26458332;stroke-linecap:butt;stroke-linejoin:miter;stroke-miterlimit:4;stroke-dasharray:none;stroke-dashoffset:0;stroke-opacity:1"
       transform="scale(-1,1)" />
    <path
       style="fill:#2b0000;fill-opacity:0.50196078;stroke:#000000;stroke-width:0.26458332;stroke-linecap:butt;stroke-linejoin:miter;stroke-miterlimit:4;stroke-dasharray:none;stroke-dashoffset:0;stroke-opacity:1"
       d="m 113.11695,128.75821 h 0.33409 c 0.0925,0 0.0996,0.10363 0.16704,0.16704 2.19752,2.06762 0.99926,3.95169 0,5.84652 -0.0432,0.0819 -0.0745,0.16705 -0.16704,0.16705 h -0.33409 c -0.0925,0 -0.22154,-0.0923 -0.16704,-0.16705 1.3974,-1.91779 2.53894,-3.84126 0,-5.84652 -0.0726,-0.0573 0.0745,-0.16704 0.16704,-0.16704 z"
       id="rect4553"
       inkscape:connector-curvature="0"
       sodipodi:nodetypes="sssssssss" />
    <text
       xml:space="preserve"
       style="font-style:normal;font-variant:normal;font-weight:normal;font-stretch:normal;font-size:4.63020849px;line-height:125%;font-family:sans-serif;-inkscape-font-specification:'sans-serif, Normal';text-align:start;letter-spacing:0px;word-spacing:0px;writing-mode:lr-tb;text-anchor:start;fill:#000000;fill-opacity:1;stroke:none;stroke-width:0.26458332px;stroke-linecap:butt;stroke-linejoin:miter;stroke-opacity:1"
       x="84.855659"
       y="97.995537"
       id="text4560"><tspan
         sodipodi:role="line"
         id="tspan4558"
         x="84.855659"
         y="97.995537"
         style="stroke-width:0.26458332px">BASE</tspan></text>
    <path
       style="fill:none;fill-rule:evenodd;stroke:#000000;stroke-width:0.26458332px;stroke-linecap:butt;stroke-linejoin:miter;stroke-opacity:1"
       d="m 95.438988,99.838167 2.267852,5.338913"
       id="path5042"
       inkscape:connector-curvature="0" />
    <path
       style="fill:none;fill-rule:evenodd;stroke:#000000;stroke-width:0.26458332px;stroke-linecap:butt;stroke-linejoin:miter;stroke-opacity:1"
       d="m 56.928408,119.66667 2.199063,8.20701"
       id="path5044"
       inkscape:connector-curvature="0" />
    <text
       xml:space="preserve"
       style="font-style:normal;font-variant:normal;font-weight:normal;font-stretch:normal;font-size:4.63020849px;line-height:125%;font-family:sans-serif;-inkscape-font-specification:'sans-serif, Normal';text-align:start;letter-spacing:0px;word-spacing:0px;writing-mode:lr-tb;text-anchor:start;fill:#000000;fill-opacity:1;stroke:none;stroke-width:0.26458332px;stroke-linecap:butt;stroke-linejoin:miter;stroke-opacity:1"
       x="49.444862"
       y="113.51947"
       id="text5048"><tspan
         sodipodi:role="line"
         id="tspan5046"
         x="49.444862"
         y="113.51947"
         style="stroke-width:0.26458332px">RESOURCE</tspan><tspan
         sodipodi:role="line"
         x="49.444862"
         y="119.30723"
         style="stroke-width:0.26458332px"
         id="tspan5050">(occupied)</tspan></text>
    <text
       xml:space="preserve"
       style="font-style:normal;font-variant:normal;font-weight:normal;font-stretch:normal;font-size:4.63020849px;line-height:125%;font-family:sans-serif;-inkscape-font-specification:'sans-serif, Normal';text-align:start;letter-spacing:0px;word-spacing:0px;writing-mode:lr-tb;text-anchor:start;fill:#000000;fill-opacity:1;stroke:none;stroke-width:0.26458332px;stroke-linecap:butt;stroke-linejoin:miter;stroke-opacity:1"
       x="109.31324"
       y="149.46721"
       id="text5054"><tspan
         sodipodi:role="line"
         id="tspan5052"
         x="109.31324"
         y="149.46721"
         style="stroke-width:0.26458332px">BUILDER</tspan></text>
    <text
       xml:space="preserve"
       style="font-style:normal;font-variant:normal;font-weight:normal;font-stretch:normal;font-size:4.63020849px;line-height:125%;font-family:sans-serif;-inkscape-font-specification:'sans-serif, Normal';text-align:start;letter-spacing:0px;word-spacing:0px;writing-mode:lr-tb;text-anchor:start;fill:#000000;fill-opacity:1;stroke:none;stroke-width:0.26458332px;stroke-linecap:butt;stroke-linejoin:miter;stroke-opacity:1"
       x="133.00426"
       y="136.63828"
       id="text5058"><tspan
         sodipodi:role="line"
         id="tspan5056"
         x="133.00426"
         y="136.63828"
         style="stroke-width:0.26458332px">RESOURCE</tspan><tspan
         sodipodi:role="line"
         x="133.00426"
         y="142.42604"
         style="stroke-width:0.26458332px"
         id="tspan5060">(free)</tspan></text>
    <text
       xml:space="preserve"
       style="font-style:normal;font-variant:normal;font-weight:normal;font-stretch:normal;font-size:4.16525602px;line-height:125%;font-family:sans-serif;-inkscape-font-specification:'sans-serif, Normal';text-align:center;letter-spacing:0px;word-spacing:0px;writing-mode:lr-tb;text-anchor:middle;fill:#e3dbdb;fill-opacity:1;stroke:none;stroke-width:0.23801462px;stroke-linecap:butt;stroke-linejoin:miter;stroke-opacity:1"
       x="144.46408"
       y="103.52898"
       id="text5064"
       transform="scale(0.95162934,1.0508293)"><tspan
         sodipodi:role="line"
         id="tspan5062"
         x="144.46408"
         y="103.52898"
         style="text-align:center;text-anchor:middle;fill:#e3dbdb;stroke-width:0.23801462px">TERRAIN</tspan><tspan
         sodipodi:role="line"
         x="144.46408"
         y="108.73555"
         style="text-align:center;text-anchor:middle;fill:#e3dbdb;stroke-width:0.23801462px"
         id="tspan5066">(must be terraformed)</tspan></text>
  </g>
</svg>
